<mxfile host="app.diagrams.net" modified="2024-01-18T16:57:29.279Z" agent="Mozilla/5.0 (Windows NT 10.0; Win64; x64) AppleWebKit/537.36 (KHTML, like Gecko) Chrome/120.0.0.0 Safari/537.36" etag="IfaSecsSpfqKnPzXvPmW" version="22.1.21" type="github">
  <diagram id="C5RBs43oDa-KdzZeNtuy" name="Page-1">
    <mxGraphModel dx="1413" dy="483" grid="0" gridSize="5" guides="1" tooltips="1" connect="1" arrows="1" fold="1" page="1" pageScale="1" pageWidth="4681" pageHeight="3300" math="0" shadow="0">
      <root>
        <mxCell id="WIyWlLk6GJQsqaUBKTNV-0" />
        <mxCell id="WIyWlLk6GJQsqaUBKTNV-1" parent="WIyWlLk6GJQsqaUBKTNV-0" />
        <mxCell id="R0Rte5mgnnEbFd30__bY-20" value="RegisterReader" style="swimlane;fontStyle=1;align=center;verticalAlign=top;childLayout=stackLayout;horizontal=1;startSize=26;horizontalStack=0;resizeParent=1;resizeParentMax=0;resizeLast=0;collapsible=1;marginBottom=0;whiteSpace=wrap;html=1;" parent="WIyWlLk6GJQsqaUBKTNV-1" vertex="1">
          <mxGeometry x="1880" y="975" width="285" height="142" as="geometry">
            <mxRectangle x="340" y="460" width="80" height="30" as="alternateBounds" />
          </mxGeometry>
        </mxCell>
        <mxCell id="R0Rte5mgnnEbFd30__bY-29" value="+ TableView: class" style="text;strokeColor=none;fillColor=none;align=left;verticalAlign=top;spacingLeft=4;spacingRight=4;overflow=hidden;rotatable=0;points=[[0,0.5],[1,0.5]];portConstraint=eastwest;whiteSpace=wrap;html=1;" parent="R0Rte5mgnnEbFd30__bY-20" vertex="1">
          <mxGeometry y="26" width="285" height="26" as="geometry" />
        </mxCell>
        <mxCell id="R0Rte5mgnnEbFd30__bY-22" value="" style="line;strokeWidth=1;fillColor=none;align=left;verticalAlign=middle;spacingTop=-1;spacingLeft=3;spacingRight=3;rotatable=0;labelPosition=right;points=[];portConstraint=eastwest;strokeColor=inherit;" parent="R0Rte5mgnnEbFd30__bY-20" vertex="1">
          <mxGeometry y="52" width="285" height="8" as="geometry" />
        </mxCell>
        <mxCell id="R0Rte5mgnnEbFd30__bY-24" value="+ start(TableView, register_addresses): void" style="text;strokeColor=none;fillColor=none;align=left;verticalAlign=top;spacingLeft=4;spacingRight=4;overflow=hidden;rotatable=0;points=[[0,0.5],[1,0.5]];portConstraint=eastwest;whiteSpace=wrap;html=1;" parent="R0Rte5mgnnEbFd30__bY-20" vertex="1">
          <mxGeometry y="60" width="285" height="26" as="geometry" />
        </mxCell>
        <mxCell id="R0Rte5mgnnEbFd30__bY-42" value="+ stop(TableView): bool" style="text;strokeColor=none;fillColor=none;align=left;verticalAlign=top;spacingLeft=4;spacingRight=4;overflow=hidden;rotatable=0;points=[[0,0.5],[1,0.5]];portConstraint=eastwest;whiteSpace=wrap;html=1;" parent="R0Rte5mgnnEbFd30__bY-20" vertex="1">
          <mxGeometry y="86" width="285" height="28" as="geometry" />
        </mxCell>
        <mxCell id="pHV8ULAKs_P2QOliN_mK-52" value="+ update_table(TableView): bool" style="text;strokeColor=none;fillColor=none;align=left;verticalAlign=top;spacingLeft=4;spacingRight=4;overflow=hidden;rotatable=0;points=[[0,0.5],[1,0.5]];portConstraint=eastwest;whiteSpace=wrap;html=1;" parent="R0Rte5mgnnEbFd30__bY-20" vertex="1">
          <mxGeometry y="114" width="285" height="28" as="geometry" />
        </mxCell>
        <mxCell id="R0Rte5mgnnEbFd30__bY-61" value="TableView" style="swimlane;fontStyle=1;align=center;verticalAlign=top;childLayout=stackLayout;horizontal=1;startSize=26;horizontalStack=0;resizeParent=1;resizeParentMax=0;resizeLast=0;collapsible=1;marginBottom=0;whiteSpace=wrap;html=1;" parent="WIyWlLk6GJQsqaUBKTNV-1" vertex="1">
          <mxGeometry x="2120" y="1317" width="320" height="346" as="geometry" />
        </mxCell>
        <mxCell id="R0Rte5mgnnEbFd30__bY-62" value="- device_number: int" style="text;strokeColor=none;fillColor=none;align=left;verticalAlign=top;spacingLeft=4;spacingRight=4;overflow=hidden;rotatable=0;points=[[0,0.5],[1,0.5]];portConstraint=eastwest;whiteSpace=wrap;html=1;" parent="R0Rte5mgnnEbFd30__bY-61" vertex="1">
          <mxGeometry y="26" width="320" height="26" as="geometry" />
        </mxCell>
        <mxCell id="pHV8ULAKs_P2QOliN_mK-25" value="- device_name: string" style="text;strokeColor=none;fillColor=none;align=left;verticalAlign=top;spacingLeft=4;spacingRight=4;overflow=hidden;rotatable=0;points=[[0,0.5],[1,0.5]];portConstraint=eastwest;whiteSpace=wrap;html=1;" parent="R0Rte5mgnnEbFd30__bY-61" vertex="1">
          <mxGeometry y="52" width="320" height="26" as="geometry" />
        </mxCell>
        <mxCell id="pHV8ULAKs_P2QOliN_mK-24" value="- slave_address: bool" style="text;strokeColor=none;fillColor=none;align=left;verticalAlign=top;spacingLeft=4;spacingRight=4;overflow=hidden;rotatable=0;points=[[0,0.5],[1,0.5]];portConstraint=eastwest;whiteSpace=wrap;html=1;" parent="R0Rte5mgnnEbFd30__bY-61" vertex="1">
          <mxGeometry y="78" width="320" height="26" as="geometry" />
        </mxCell>
        <mxCell id="NA0rE5WpsOrF8ZW44wvQ-11" value="- device_protocols: list" style="text;strokeColor=none;fillColor=none;align=left;verticalAlign=top;spacingLeft=4;spacingRight=4;overflow=hidden;rotatable=0;points=[[0,0.5],[1,0.5]];portConstraint=eastwest;whiteSpace=wrap;html=1;" parent="R0Rte5mgnnEbFd30__bY-61" vertex="1">
          <mxGeometry y="104" width="320" height="26" as="geometry" />
        </mxCell>
        <mxCell id="pHV8ULAKs_P2QOliN_mK-9" value="- status: bool" style="text;strokeColor=none;fillColor=none;align=left;verticalAlign=top;spacingLeft=4;spacingRight=4;overflow=hidden;rotatable=0;points=[[0,0.5],[1,0.5]];portConstraint=eastwest;whiteSpace=wrap;html=1;" parent="R0Rte5mgnnEbFd30__bY-61" vertex="1">
          <mxGeometry y="130" width="320" height="26" as="geometry" />
        </mxCell>
        <mxCell id="R0Rte5mgnnEbFd30__bY-63" value="" style="line;strokeWidth=1;fillColor=none;align=left;verticalAlign=middle;spacingTop=-1;spacingLeft=3;spacingRight=3;rotatable=0;labelPosition=right;points=[];portConstraint=eastwest;strokeColor=inherit;" parent="R0Rte5mgnnEbFd30__bY-61" vertex="1">
          <mxGeometry y="156" width="320" height="8" as="geometry" />
        </mxCell>
        <mxCell id="R0Rte5mgnnEbFd30__bY-55" value="+ edit_connection(): type" style="text;strokeColor=none;fillColor=none;align=left;verticalAlign=top;spacingLeft=4;spacingRight=4;overflow=hidden;rotatable=0;points=[[0,0.5],[1,0.5]];portConstraint=eastwest;whiteSpace=wrap;html=1;" parent="R0Rte5mgnnEbFd30__bY-61" vertex="1">
          <mxGeometry y="164" width="320" height="26" as="geometry" />
        </mxCell>
        <mxCell id="R0Rte5mgnnEbFd30__bY-56" value="+ rename_device(): bool" style="text;strokeColor=none;fillColor=none;align=left;verticalAlign=top;spacingLeft=4;spacingRight=4;overflow=hidden;rotatable=0;points=[[0,0.5],[1,0.5]];portConstraint=eastwest;whiteSpace=wrap;html=1;" parent="R0Rte5mgnnEbFd30__bY-61" vertex="1">
          <mxGeometry y="190" width="320" height="26" as="geometry" />
        </mxCell>
        <mxCell id="pHV8ULAKs_P2QOliN_mK-10" value="+ display_connection(): type" style="text;strokeColor=none;fillColor=none;align=left;verticalAlign=top;spacingLeft=4;spacingRight=4;overflow=hidden;rotatable=0;points=[[0,0.5],[1,0.5]];portConstraint=eastwest;whiteSpace=wrap;html=1;" parent="R0Rte5mgnnEbFd30__bY-61" vertex="1">
          <mxGeometry y="216" width="320" height="26" as="geometry" />
        </mxCell>
        <mxCell id="pHV8ULAKs_P2QOliN_mK-33" value="+ connect(): bool&amp;lt;&amp;lt;Implements&amp;gt;&amp;gt;" style="text;strokeColor=none;fillColor=none;align=left;verticalAlign=top;spacingLeft=4;spacingRight=4;overflow=hidden;rotatable=0;points=[[0,0.5],[1,0.5]];portConstraint=eastwest;whiteSpace=wrap;html=1;" parent="R0Rte5mgnnEbFd30__bY-61" vertex="1">
          <mxGeometry y="242" width="320" height="26" as="geometry" />
        </mxCell>
        <mxCell id="pHV8ULAKs_P2QOliN_mK-35" value="+ disconnect(): bool&amp;nbsp; &amp;nbsp;&amp;lt;&amp;lt;Implements&amp;gt;&amp;gt;" style="text;strokeColor=none;fillColor=none;align=left;verticalAlign=top;spacingLeft=4;spacingRight=4;overflow=hidden;rotatable=0;points=[[0,0.5],[1,0.5]];portConstraint=eastwest;whiteSpace=wrap;html=1;" parent="R0Rte5mgnnEbFd30__bY-61" vertex="1">
          <mxGeometry y="268" width="320" height="26" as="geometry" />
        </mxCell>
        <mxCell id="pHV8ULAKs_P2QOliN_mK-34" value="+ is_connected(): bool &amp;lt;&amp;lt;Implements&amp;gt;&amp;gt;" style="text;strokeColor=none;fillColor=none;align=left;verticalAlign=top;spacingLeft=4;spacingRight=4;overflow=hidden;rotatable=0;points=[[0,0.5],[1,0.5]];portConstraint=eastwest;whiteSpace=wrap;html=1;" parent="R0Rte5mgnnEbFd30__bY-61" vertex="1">
          <mxGeometry y="294" width="320" height="26" as="geometry" />
        </mxCell>
        <mxCell id="NA0rE5WpsOrF8ZW44wvQ-50" value="+ edit_register_name(string): bool" style="text;strokeColor=none;fillColor=none;align=left;verticalAlign=top;spacingLeft=4;spacingRight=4;overflow=hidden;rotatable=0;points=[[0,0.5],[1,0.5]];portConstraint=eastwest;whiteSpace=wrap;html=1;" parent="R0Rte5mgnnEbFd30__bY-61" vertex="1">
          <mxGeometry y="320" width="320" height="26" as="geometry" />
        </mxCell>
        <mxCell id="R0Rte5mgnnEbFd30__bY-67" value="JsonFileWriter" style="swimlane;fontStyle=1;align=center;verticalAlign=top;childLayout=stackLayout;horizontal=1;startSize=26;horizontalStack=0;resizeParent=1;resizeParentMax=0;resizeLast=0;collapsible=1;marginBottom=0;whiteSpace=wrap;html=1;" parent="WIyWlLk6GJQsqaUBKTNV-1" vertex="1">
          <mxGeometry x="1500" y="1575" width="320" height="294" as="geometry" />
        </mxCell>
        <mxCell id="R0Rte5mgnnEbFd30__bY-68" value="+ file_path: string" style="text;strokeColor=none;fillColor=none;align=left;verticalAlign=top;spacingLeft=4;spacingRight=4;overflow=hidden;rotatable=0;points=[[0,0.5],[1,0.5]];portConstraint=eastwest;whiteSpace=wrap;html=1;" parent="R0Rte5mgnnEbFd30__bY-67" vertex="1">
          <mxGeometry y="26" width="320" height="26" as="geometry" />
        </mxCell>
        <mxCell id="R0Rte5mgnnEbFd30__bY-69" value="" style="line;strokeWidth=1;fillColor=none;align=left;verticalAlign=middle;spacingTop=-1;spacingLeft=3;spacingRight=3;rotatable=0;labelPosition=right;points=[];portConstraint=eastwest;strokeColor=inherit;" parent="R0Rte5mgnnEbFd30__bY-67" vertex="1">
          <mxGeometry y="52" width="320" height="8" as="geometry" />
        </mxCell>
        <mxCell id="R0Rte5mgnnEbFd30__bY-70" value="+ create_data_folder(): bool" style="text;strokeColor=none;fillColor=none;align=left;verticalAlign=top;spacingLeft=4;spacingRight=4;overflow=hidden;rotatable=0;points=[[0,0.5],[1,0.5]];portConstraint=eastwest;whiteSpace=wrap;html=1;" parent="R0Rte5mgnnEbFd30__bY-67" vertex="1">
          <mxGeometry y="60" width="320" height="26" as="geometry" />
        </mxCell>
        <mxCell id="R0Rte5mgnnEbFd30__bY-71" value="+ create_file(): bool" style="text;strokeColor=none;fillColor=none;align=left;verticalAlign=top;spacingLeft=4;spacingRight=4;overflow=hidden;rotatable=0;points=[[0,0.5],[1,0.5]];portConstraint=eastwest;whiteSpace=wrap;html=1;" parent="R0Rte5mgnnEbFd30__bY-67" vertex="1">
          <mxGeometry y="86" width="320" height="26" as="geometry" />
        </mxCell>
        <mxCell id="R0Rte5mgnnEbFd30__bY-74" value="- save_connection_params(device): bool *****" style="text;strokeColor=none;fillColor=none;align=left;verticalAlign=top;spacingLeft=4;spacingRight=4;overflow=hidden;rotatable=0;points=[[0,0.5],[1,0.5]];portConstraint=eastwest;whiteSpace=wrap;html=1;" parent="R0Rte5mgnnEbFd30__bY-67" vertex="1">
          <mxGeometry y="112" width="320" height="26" as="geometry" />
        </mxCell>
        <mxCell id="pHV8ULAKs_P2QOliN_mK-21" value="- save_register_addresses(device): bool ******" style="text;strokeColor=none;fillColor=none;align=left;verticalAlign=top;spacingLeft=4;spacingRight=4;overflow=hidden;rotatable=0;points=[[0,0.5],[1,0.5]];portConstraint=eastwest;whiteSpace=wrap;html=1;" parent="R0Rte5mgnnEbFd30__bY-67" vertex="1">
          <mxGeometry y="138" width="320" height="26" as="geometry" />
        </mxCell>
        <mxCell id="R0Rte5mgnnEbFd30__bY-73" value="+ update_connection_params(device): bool" style="text;strokeColor=none;fillColor=none;align=left;verticalAlign=top;spacingLeft=4;spacingRight=4;overflow=hidden;rotatable=0;points=[[0,0.5],[1,0.5]];portConstraint=eastwest;whiteSpace=wrap;html=1;" parent="R0Rte5mgnnEbFd30__bY-67" vertex="1">
          <mxGeometry y="164" width="320" height="26" as="geometry" />
        </mxCell>
        <mxCell id="pHV8ULAKs_P2QOliN_mK-22" value="+ update_register_addresses(device): bool" style="text;strokeColor=none;fillColor=none;align=left;verticalAlign=top;spacingLeft=4;spacingRight=4;overflow=hidden;rotatable=0;points=[[0,0.5],[1,0.5]];portConstraint=eastwest;whiteSpace=wrap;html=1;" parent="R0Rte5mgnnEbFd30__bY-67" vertex="1">
          <mxGeometry y="190" width="320" height="26" as="geometry" />
        </mxCell>
        <mxCell id="R0Rte5mgnnEbFd30__bY-76" value="+ add_device(device, device_params): bool" style="text;strokeColor=none;fillColor=none;align=left;verticalAlign=top;spacingLeft=4;spacingRight=4;overflow=hidden;rotatable=0;points=[[0,0.5],[1,0.5]];portConstraint=eastwest;whiteSpace=wrap;html=1;" parent="R0Rte5mgnnEbFd30__bY-67" vertex="1">
          <mxGeometry y="216" width="320" height="26" as="geometry" />
        </mxCell>
        <mxCell id="R0Rte5mgnnEbFd30__bY-72" value="+ update_register_name(device, reg_number): bool" style="text;strokeColor=none;fillColor=none;align=left;verticalAlign=top;spacingLeft=4;spacingRight=4;overflow=hidden;rotatable=0;points=[[0,0.5],[1,0.5]];portConstraint=eastwest;whiteSpace=wrap;html=1;" parent="R0Rte5mgnnEbFd30__bY-67" vertex="1">
          <mxGeometry y="242" width="320" height="26" as="geometry" />
        </mxCell>
        <mxCell id="pHV8ULAKs_P2QOliN_mK-23" value="+ delete_register(device, register_number): bool" style="text;strokeColor=none;fillColor=none;align=left;verticalAlign=top;spacingLeft=4;spacingRight=4;overflow=hidden;rotatable=0;points=[[0,0.5],[1,0.5]];portConstraint=eastwest;whiteSpace=wrap;html=1;" parent="R0Rte5mgnnEbFd30__bY-67" vertex="1">
          <mxGeometry y="268" width="320" height="26" as="geometry" />
        </mxCell>
        <mxCell id="pHV8ULAKs_P2QOliN_mK-11" value="JsonFileReader" style="swimlane;fontStyle=1;align=center;verticalAlign=top;childLayout=stackLayout;horizontal=1;startSize=26;horizontalStack=0;resizeParent=1;resizeParentMax=0;resizeLast=0;collapsible=1;marginBottom=0;whiteSpace=wrap;html=1;" parent="WIyWlLk6GJQsqaUBKTNV-1" vertex="1">
          <mxGeometry x="1540" y="1205" width="280" height="268" as="geometry" />
        </mxCell>
        <mxCell id="pHV8ULAKs_P2QOliN_mK-12" value="+ file_path: string" style="text;strokeColor=none;fillColor=none;align=left;verticalAlign=top;spacingLeft=4;spacingRight=4;overflow=hidden;rotatable=0;points=[[0,0.5],[1,0.5]];portConstraint=eastwest;whiteSpace=wrap;html=1;" parent="pHV8ULAKs_P2QOliN_mK-11" vertex="1">
          <mxGeometry y="26" width="280" height="26" as="geometry" />
        </mxCell>
        <mxCell id="pHV8ULAKs_P2QOliN_mK-13" value="" style="line;strokeWidth=1;fillColor=none;align=left;verticalAlign=middle;spacingTop=-1;spacingLeft=3;spacingRight=3;rotatable=0;labelPosition=right;points=[];portConstraint=eastwest;strokeColor=inherit;" parent="pHV8ULAKs_P2QOliN_mK-11" vertex="1">
          <mxGeometry y="52" width="280" height="8" as="geometry" />
        </mxCell>
        <mxCell id="pHV8ULAKs_P2QOliN_mK-14" value="+ data_folder_exists(): bool" style="text;strokeColor=none;fillColor=none;align=left;verticalAlign=top;spacingLeft=4;spacingRight=4;overflow=hidden;rotatable=0;points=[[0,0.5],[1,0.5]];portConstraint=eastwest;whiteSpace=wrap;html=1;" parent="pHV8ULAKs_P2QOliN_mK-11" vertex="1">
          <mxGeometry y="60" width="280" height="26" as="geometry" />
        </mxCell>
        <mxCell id="pHV8ULAKs_P2QOliN_mK-15" value="+ data_file_exists(): bool" style="text;strokeColor=none;fillColor=none;align=left;verticalAlign=top;spacingLeft=4;spacingRight=4;overflow=hidden;rotatable=0;points=[[0,0.5],[1,0.5]];portConstraint=eastwest;whiteSpace=wrap;html=1;" parent="pHV8ULAKs_P2QOliN_mK-11" vertex="1">
          <mxGeometry y="86" width="280" height="26" as="geometry" />
        </mxCell>
        <mxCell id="pHV8ULAKs_P2QOliN_mK-17" value="+ get_devices(): dict&amp;nbsp; ****" style="text;strokeColor=none;fillColor=none;align=left;verticalAlign=top;spacingLeft=4;spacingRight=4;overflow=hidden;rotatable=0;points=[[0,0.5],[1,0.5]];portConstraint=eastwest;whiteSpace=wrap;html=1;" parent="pHV8ULAKs_P2QOliN_mK-11" vertex="1">
          <mxGeometry y="112" width="280" height="26" as="geometry" />
        </mxCell>
        <mxCell id="NA0rE5WpsOrF8ZW44wvQ-6" value="+ get_device_count(): int" style="text;strokeColor=none;fillColor=none;align=left;verticalAlign=top;spacingLeft=4;spacingRight=4;overflow=hidden;rotatable=0;points=[[0,0.5],[1,0.5]];portConstraint=eastwest;whiteSpace=wrap;html=1;" parent="pHV8ULAKs_P2QOliN_mK-11" vertex="1">
          <mxGeometry y="138" width="280" height="26" as="geometry" />
        </mxCell>
        <mxCell id="pHV8ULAKs_P2QOliN_mK-18" value="+ get_register_count(device): int" style="text;strokeColor=none;fillColor=none;align=left;verticalAlign=top;spacingLeft=4;spacingRight=4;overflow=hidden;rotatable=0;points=[[0,0.5],[1,0.5]];portConstraint=eastwest;whiteSpace=wrap;html=1;" parent="pHV8ULAKs_P2QOliN_mK-11" vertex="1">
          <mxGeometry y="164" width="280" height="26" as="geometry" />
        </mxCell>
        <mxCell id="pHV8ULAKs_P2QOliN_mK-16" value="+ get_register_addresses(device): dict" style="text;strokeColor=none;fillColor=none;align=left;verticalAlign=top;spacingLeft=4;spacingRight=4;overflow=hidden;rotatable=0;points=[[0,0.5],[1,0.5]];portConstraint=eastwest;whiteSpace=wrap;html=1;" parent="pHV8ULAKs_P2QOliN_mK-11" vertex="1">
          <mxGeometry y="190" width="280" height="26" as="geometry" />
        </mxCell>
        <mxCell id="pHV8ULAKs_P2QOliN_mK-19" value="+ get_protocol(device): list" style="text;strokeColor=none;fillColor=none;align=left;verticalAlign=top;spacingLeft=4;spacingRight=4;overflow=hidden;rotatable=0;points=[[0,0.5],[1,0.5]];portConstraint=eastwest;whiteSpace=wrap;html=1;" parent="pHV8ULAKs_P2QOliN_mK-11" vertex="1">
          <mxGeometry y="216" width="280" height="26" as="geometry" />
        </mxCell>
        <mxCell id="NA0rE5WpsOrF8ZW44wvQ-12" value="+ get_connection_params(device): dict" style="text;strokeColor=none;fillColor=none;align=left;verticalAlign=top;spacingLeft=4;spacingRight=4;overflow=hidden;rotatable=0;points=[[0,0.5],[1,0.5]];portConstraint=eastwest;whiteSpace=wrap;html=1;" parent="pHV8ULAKs_P2QOliN_mK-11" vertex="1">
          <mxGeometry y="242" width="280" height="26" as="geometry" />
        </mxCell>
        <mxCell id="pHV8ULAKs_P2QOliN_mK-36" value="" style="endArrow=block;dashed=1;endFill=0;endSize=12;html=1;rounded=0;exitX=1;exitY=0.5;exitDx=0;exitDy=0;entryX=0.5;entryY=0;entryDx=0;entryDy=0;" parent="WIyWlLk6GJQsqaUBKTNV-1" source="pHV8ULAKs_P2QOliN_mK-10" target="NA0rE5WpsOrF8ZW44wvQ-27" edge="1">
          <mxGeometry width="160" relative="1" as="geometry">
            <mxPoint x="2460" y="1640" as="sourcePoint" />
            <mxPoint x="2745.999999999999" y="1800" as="targetPoint" />
            <Array as="points">
              <mxPoint x="2700" y="1545" />
            </Array>
          </mxGeometry>
        </mxCell>
        <mxCell id="pHV8ULAKs_P2QOliN_mK-38" value="Use" style="endArrow=open;endSize=12;dashed=1;html=1;rounded=0;exitX=0;exitY=0.5;exitDx=0;exitDy=0;entryX=1;entryY=0.5;entryDx=0;entryDy=0;" parent="WIyWlLk6GJQsqaUBKTNV-1" source="R0Rte5mgnnEbFd30__bY-62" target="pHV8ULAKs_P2QOliN_mK-14" edge="1">
          <mxGeometry x="0.4974" width="160" relative="1" as="geometry">
            <mxPoint x="1693" y="1474" as="sourcePoint" />
            <mxPoint x="1878" y="1386" as="targetPoint" />
            <Array as="points">
              <mxPoint x="2000" y="1356" />
              <mxPoint x="2000" y="1278" />
            </Array>
            <mxPoint as="offset" />
          </mxGeometry>
        </mxCell>
        <mxCell id="pHV8ULAKs_P2QOliN_mK-39" value="Use" style="endArrow=open;endSize=12;dashed=1;html=1;rounded=0;entryX=1;entryY=0.5;entryDx=0;entryDy=0;exitX=0;exitY=0.5;exitDx=0;exitDy=0;" parent="WIyWlLk6GJQsqaUBKTNV-1" target="R0Rte5mgnnEbFd30__bY-71" edge="1">
          <mxGeometry x="0.6252" width="160" relative="1" as="geometry">
            <mxPoint x="2120" y="1494" as="sourcePoint" />
            <mxPoint x="1835" y="1665" as="targetPoint" />
            <Array as="points">
              <mxPoint x="2000" y="1495" />
              <mxPoint x="2000" y="1675" />
            </Array>
            <mxPoint as="offset" />
          </mxGeometry>
        </mxCell>
        <mxCell id="pHV8ULAKs_P2QOliN_mK-40" value="Use" style="endArrow=open;endSize=12;dashed=1;html=1;rounded=0;exitX=0;exitY=0.75;exitDx=0;exitDy=0;entryX=0.5;entryY=0;entryDx=0;entryDy=0;" parent="WIyWlLk6GJQsqaUBKTNV-1" source="R0Rte5mgnnEbFd30__bY-20" target="pHV8ULAKs_P2QOliN_mK-11" edge="1">
          <mxGeometry x="-0.4495" width="160" relative="1" as="geometry">
            <mxPoint x="2110" y="1015" as="sourcePoint" />
            <mxPoint x="1735" y="1115" as="targetPoint" />
            <Array as="points">
              <mxPoint x="1680" y="1082" />
            </Array>
            <mxPoint as="offset" />
          </mxGeometry>
        </mxCell>
        <mxCell id="pHV8ULAKs_P2QOliN_mK-41" value="Use" style="endArrow=open;endSize=12;dashed=1;html=1;rounded=0;exitX=0.5;exitY=0;exitDx=0;exitDy=0;entryX=1;entryY=0.5;entryDx=0;entryDy=0;" parent="WIyWlLk6GJQsqaUBKTNV-1" source="R0Rte5mgnnEbFd30__bY-61" target="R0Rte5mgnnEbFd30__bY-29" edge="1">
          <mxGeometry width="160" relative="1" as="geometry">
            <mxPoint x="2300" y="1295" as="sourcePoint" />
            <mxPoint x="2255" y="1075" as="targetPoint" />
            <Array as="points">
              <mxPoint x="2280" y="1015" />
            </Array>
          </mxGeometry>
        </mxCell>
        <mxCell id="pHV8ULAKs_P2QOliN_mK-42" value="&lt;p style=&quot;margin:0px;margin-top:4px;text-align:center;text-decoration:underline;&quot;&gt;&lt;b&gt;&lt;font face=&quot;Lucida Console&quot;&gt;Object: JSON&lt;/font&gt;&lt;/b&gt;&lt;/p&gt;&lt;hr&gt;&lt;p style=&quot;margin:0px;margin-left:8px;&quot;&gt;&lt;font face=&quot;Lucida Console&quot;&gt;&quot;device_1&quot;:{&lt;/font&gt;&lt;/p&gt;&lt;p style=&quot;margin:0px;margin-left:8px;&quot;&gt;&lt;span style=&quot;font-family: UuIYtcbSitA8eK5MFjsH; white-space: pre;&quot;&gt;&#x9;&lt;/span&gt;&lt;font face=&quot;Lucida Console&quot;&gt;&quot;device_name&quot;: &quot;meter&quot;,&lt;/font&gt;&lt;br&gt;&lt;/p&gt;&lt;p style=&quot;margin:0px;margin-left:8px;&quot;&gt;&lt;span style=&quot;font-family: UuIYtcbSitA8eK5MFjsH; white-space: pre;&quot;&gt;&#x9;&lt;/span&gt;&lt;font face=&quot;Lucida Console&quot;&gt;&quot;slave_address&quot;: &quot;1&quot;,&lt;br&gt;&lt;/font&gt;&lt;/p&gt;&lt;p style=&quot;margin:0px;margin-left:8px;&quot;&gt;&lt;span style=&quot;font-family: Paz8Co9bnPgw_T366Ow7; white-space: pre;&quot;&gt;&#x9;&lt;/span&gt;&lt;font face=&quot;Lucida Console&quot;&gt;&quot;connection_params&quot;: {&lt;/font&gt;&lt;br&gt;&lt;/p&gt;&lt;p style=&quot;margin:0px;margin-left:8px;&quot;&gt;&lt;span style=&quot;white-space: pre;&quot;&gt;&lt;font face=&quot;UuIYtcbSitA8eK5MFjsH&quot;&gt;&#x9;&lt;/font&gt;&lt;span style=&quot;font-family: UuIYtcbSitA8eK5MFjsH; white-space: pre;&quot;&gt;&#x9;&lt;/span&gt;&lt;font face=&quot;Lucida Console&quot;&gt;&quot;tcp_params&quot;: {&lt;/font&gt;&lt;/span&gt;&lt;/p&gt;&lt;p style=&quot;margin:0px;margin-left:8px;&quot;&gt;&lt;span style=&quot;font-family: UuIYtcbSitA8eK5MFjsH; white-space: pre;&quot;&gt;&#x9;&lt;/span&gt;&lt;span style=&quot;font-family: UuIYtcbSitA8eK5MFjsH; white-space: pre;&quot;&gt;&#x9;&lt;/span&gt;&lt;span style=&quot;font-family: UuIYtcbSitA8eK5MFjsH; white-space: pre;&quot;&gt;&#x9;&lt;/span&gt;&lt;font face=&quot;Lucida Console&quot;&gt;&quot;host&quot;: &quot;127.0.0.1&quot;,&lt;/font&gt;&lt;br&gt;&lt;/p&gt;&lt;p style=&quot;margin:0px;margin-left:8px;&quot;&gt;&lt;span style=&quot;font-family: UuIYtcbSitA8eK5MFjsH; white-space: pre;&quot;&gt;&#x9;&lt;/span&gt;&lt;span style=&quot;font-family: UuIYtcbSitA8eK5MFjsH; white-space: pre;&quot;&gt;&#x9;&lt;/span&gt;&lt;span style=&quot;font-family: UuIYtcbSitA8eK5MFjsH; white-space: pre;&quot;&gt;&#x9;&lt;/span&gt;&lt;font face=&quot;Lucida Console&quot;&gt;&quot;port&quot;: 502&lt;/font&gt;&lt;br&gt;&lt;/p&gt;&lt;p style=&quot;margin:0px;margin-left:8px;&quot;&gt;&lt;span style=&quot;font-family: UuIYtcbSitA8eK5MFjsH; white-space: pre;&quot;&gt;&#x9;&lt;span style=&quot;white-space: pre;&quot;&gt;&#x9;&lt;/span&gt;&lt;/span&gt;&lt;font face=&quot;Lucida Console&quot;&gt;},&lt;/font&gt;&lt;/p&gt;&lt;p style=&quot;margin:0px;margin-left:8px;&quot;&gt;&lt;span style=&quot;font-family: UuIYtcbSitA8eK5MFjsH; white-space: pre;&quot;&gt;&#x9;&lt;/span&gt;&lt;span style=&quot;font-family: UuIYtcbSitA8eK5MFjsH; white-space: pre;&quot;&gt;&#x9;&lt;/span&gt;&lt;font face=&quot;Lucida Console&quot;&gt;&quot;rtu_params&quot;: {&lt;/font&gt;&lt;br&gt;&lt;/p&gt;&lt;p style=&quot;margin:0px;margin-left:8px;&quot;&gt;&lt;span style=&quot;font-family: UuIYtcbSitA8eK5MFjsH; white-space: pre;&quot;&gt;&#x9;&lt;/span&gt;&lt;span style=&quot;font-family: UuIYtcbSitA8eK5MFjsH; white-space: pre;&quot;&gt;&#x9;&lt;/span&gt;&lt;span style=&quot;font-family: UuIYtcbSitA8eK5MFjsH; white-space: pre;&quot;&gt;&#x9;&lt;/span&gt;&lt;font face=&quot;Lucida Console&quot;&gt;&quot;port&quot;: &quot;COM1&quot;,&lt;br&gt;&lt;/font&gt;&lt;/p&gt;&lt;p style=&quot;margin:0px;margin-left:8px;&quot;&gt;&lt;span style=&quot;font-family: UuIYtcbSitA8eK5MFjsH; white-space: pre;&quot;&gt;&#x9;&lt;/span&gt;&lt;span style=&quot;font-family: UuIYtcbSitA8eK5MFjsH; white-space: pre;&quot;&gt;&#x9;&lt;/span&gt;&lt;span style=&quot;font-family: UuIYtcbSitA8eK5MFjsH; white-space: pre;&quot;&gt;&#x9;&lt;/span&gt;&lt;font face=&quot;Lucida Console&quot;&gt;&quot;baudrate&quot;: &quot;9600&quot;,&lt;/font&gt;&lt;br&gt;&lt;/p&gt;&lt;p style=&quot;margin:0px;margin-left:8px;&quot;&gt;&lt;span style=&quot;font-family: UuIYtcbSitA8eK5MFjsH; white-space: pre;&quot;&gt;&#x9;&lt;/span&gt;&lt;span style=&quot;font-family: UuIYtcbSitA8eK5MFjsH; white-space: pre;&quot;&gt;&#x9;&lt;/span&gt;&lt;span style=&quot;font-family: UuIYtcbSitA8eK5MFjsH; white-space: pre;&quot;&gt;&#x9;&lt;/span&gt;&lt;font face=&quot;Lucida Console&quot;&gt;&quot;parity&quot;: &quot;N&quot;,&lt;/font&gt;&lt;br&gt;&lt;/p&gt;&lt;p style=&quot;margin:0px;margin-left:8px;&quot;&gt;&lt;span style=&quot;font-family: UuIYtcbSitA8eK5MFjsH; white-space: pre;&quot;&gt;&#x9;&lt;/span&gt;&lt;span style=&quot;font-family: UuIYtcbSitA8eK5MFjsH; white-space: pre;&quot;&gt;&#x9;&lt;/span&gt;&lt;span style=&quot;font-family: UuIYtcbSitA8eK5MFjsH; white-space: pre;&quot;&gt;&#x9;&lt;/span&gt;&lt;font face=&quot;Lucida Console&quot;&gt;&quot;stopbits&quot;: &quot;1&quot;,&lt;/font&gt;&lt;br&gt;&lt;/p&gt;&lt;p style=&quot;margin:0px;margin-left:8px;&quot;&gt;&lt;span style=&quot;font-family: UuIYtcbSitA8eK5MFjsH; white-space: pre;&quot;&gt;&#x9;&lt;/span&gt;&lt;span style=&quot;font-family: UuIYtcbSitA8eK5MFjsH; white-space: pre;&quot;&gt;&#x9;&lt;/span&gt;&lt;span style=&quot;font-family: UuIYtcbSitA8eK5MFjsH; white-space: pre;&quot;&gt;&#x9;&lt;/span&gt;&lt;font face=&quot;Lucida Console&quot;&gt;&quot;bytesize&quot;: &quot;8&quot;,&lt;/font&gt;&lt;br&gt;&lt;/p&gt;&lt;p style=&quot;margin:0px;margin-left:8px;&quot;&gt;&lt;span style=&quot;font-family: UuIYtcbSitA8eK5MFjsH; white-space: pre;&quot;&gt;&#x9;&lt;/span&gt;&lt;span style=&quot;font-family: UuIYtcbSitA8eK5MFjsH; white-space: pre;&quot;&gt;&#x9;&lt;/span&gt;&lt;span style=&quot;font-family: UuIYtcbSitA8eK5MFjsH; white-space: pre;&quot;&gt;&#x9;&lt;/span&gt;&lt;font face=&quot;Lucida Console&quot;&gt;&quot;timeout&quot;: &quot;1&quot;&lt;/font&gt;&lt;br&gt;&lt;/p&gt;&lt;p style=&quot;margin:0px;margin-left:8px;&quot;&gt;&lt;span style=&quot;font-family: UuIYtcbSitA8eK5MFjsH; white-space: pre;&quot;&gt;&#x9;&lt;/span&gt;&lt;span style=&quot;font-family: UuIYtcbSitA8eK5MFjsH; white-space: pre;&quot;&gt;&#x9;&lt;/span&gt;&lt;font face=&quot;Lucida Console&quot;&gt;}&lt;/font&gt;&lt;/p&gt;&lt;p style=&quot;margin:0px;margin-left:8px;&quot;&gt;&lt;span style=&quot;font-family: UuIYtcbSitA8eK5MFjsH; white-space: pre;&quot;&gt;&#x9;&lt;/span&gt;&lt;font face=&quot;Lucida Console&quot;&gt;},&lt;/font&gt;&lt;/p&gt;&lt;p style=&quot;margin:0px;margin-left:8px;&quot;&gt;&lt;span style=&quot;font-family: UuIYtcbSitA8eK5MFjsH; white-space: pre;&quot;&gt;&#x9;&lt;/span&gt;&lt;font face=&quot;Lucida Console&quot;&gt;&quot;registers&quot;: {&lt;/font&gt;&lt;br&gt;&lt;/p&gt;&lt;p style=&quot;margin:0px;margin-left:8px;&quot;&gt;&lt;span style=&quot;font-family: UuIYtcbSitA8eK5MFjsH; white-space: pre;&quot;&gt;&#x9;&lt;/span&gt;&lt;span style=&quot;font-family: UuIYtcbSitA8eK5MFjsH; white-space: pre;&quot;&gt;&#x9;&lt;/span&gt;&lt;font face=&quot;Lucida Console&quot;&gt;&quot;register_1&quot;: {&lt;/font&gt;&lt;br&gt;&lt;/p&gt;&lt;p style=&quot;margin:0px;margin-left:8px;&quot;&gt;&lt;span style=&quot;font-family: UuIYtcbSitA8eK5MFjsH; white-space: pre;&quot;&gt;&#x9;&lt;/span&gt;&lt;span style=&quot;font-family: UuIYtcbSitA8eK5MFjsH; white-space: pre;&quot;&gt;&#x9;&lt;/span&gt;&lt;span style=&quot;font-family: UuIYtcbSitA8eK5MFjsH; white-space: pre;&quot;&gt;&#x9;&lt;/span&gt;&lt;font face=&quot;Lucida Console&quot;&gt;&quot;address&quot;: 2,&lt;/font&gt;&lt;br&gt;&lt;/p&gt;&lt;p style=&quot;margin:0px;margin-left:8px;&quot;&gt;&lt;span style=&quot;font-family: UuIYtcbSitA8eK5MFjsH; white-space: pre;&quot;&gt;&#x9;&lt;/span&gt;&lt;span style=&quot;font-family: UuIYtcbSitA8eK5MFjsH; white-space: pre;&quot;&gt;&#x9;&lt;/span&gt;&lt;span style=&quot;font-family: UuIYtcbSitA8eK5MFjsH; white-space: pre;&quot;&gt;&#x9;&lt;/span&gt;&lt;font face=&quot;Lucida Console&quot;&gt;&quot;register_name&quot;: &quot;Reactive Power&quot;,&lt;/font&gt;&lt;br&gt;&lt;/p&gt;&lt;p style=&quot;margin:0px;margin-left:8px;&quot;&gt;&lt;span style=&quot;font-family: UuIYtcbSitA8eK5MFjsH; white-space: pre;&quot;&gt;&#x9;&lt;/span&gt;&lt;span style=&quot;font-family: UuIYtcbSitA8eK5MFjsH; white-space: pre;&quot;&gt;&#x9;&lt;/span&gt;&lt;span style=&quot;font-family: UuIYtcbSitA8eK5MFjsH; white-space: pre;&quot;&gt;&#x9;&lt;/span&gt;&lt;font face=&quot;Lucida Console&quot;&gt;&quot;function_code&quot;: 3,&lt;/font&gt;&lt;br&gt;&lt;/p&gt;&lt;p style=&quot;margin:0px;margin-left:8px;&quot;&gt;&lt;span style=&quot;font-family: UuIYtcbSitA8eK5MFjsH; white-space: pre;&quot;&gt;&#x9;&lt;/span&gt;&lt;span style=&quot;font-family: UuIYtcbSitA8eK5MFjsH; white-space: pre;&quot;&gt;&#x9;&lt;/span&gt;&lt;span style=&quot;font-family: UuIYtcbSitA8eK5MFjsH; white-space: pre;&quot;&gt;&#x9;&lt;/span&gt;&lt;font face=&quot;Lucida Console&quot;&gt;&quot;units&quot;: &quot;vAr&quot;,&lt;/font&gt;&lt;br&gt;&lt;/p&gt;&lt;p style=&quot;margin:0px;margin-left:8px;&quot;&gt;&lt;span style=&quot;font-family: UuIYtcbSitA8eK5MFjsH; white-space: pre;&quot;&gt;&#x9;&lt;/span&gt;&lt;span style=&quot;font-family: UuIYtcbSitA8eK5MFjsH; white-space: pre;&quot;&gt;&#x9;&lt;/span&gt;&lt;span style=&quot;font-family: UuIYtcbSitA8eK5MFjsH; white-space: pre;&quot;&gt;&#x9;&lt;/span&gt;&lt;font face=&quot;Lucida Console&quot;&gt;&quot;gain&quot;: 1,&lt;/font&gt;&lt;br&gt;&lt;/p&gt;&lt;p style=&quot;margin:0px;margin-left:8px;&quot;&gt;&lt;span style=&quot;font-family: UuIYtcbSitA8eK5MFjsH; white-space: pre;&quot;&gt;&#x9;&lt;/span&gt;&lt;span style=&quot;font-family: UuIYtcbSitA8eK5MFjsH; white-space: pre;&quot;&gt;&#x9;&lt;/span&gt;&lt;span style=&quot;font-family: UuIYtcbSitA8eK5MFjsH; white-space: pre;&quot;&gt;&#x9;&lt;/span&gt;&lt;font face=&quot;Lucida Console&quot;&gt;&quot;data_type&quot;: &quot;float&quot;,&lt;/font&gt;&lt;br&gt;&lt;/p&gt;&lt;p style=&quot;margin:0px;margin-left:8px;&quot;&gt;&lt;span style=&quot;font-family: UuIYtcbSitA8eK5MFjsH; white-space: pre;&quot;&gt;&#x9;&lt;/span&gt;&lt;span style=&quot;font-family: UuIYtcbSitA8eK5MFjsH; white-space: pre;&quot;&gt;&#x9;&lt;/span&gt;&lt;span style=&quot;font-family: UuIYtcbSitA8eK5MFjsH; white-space: pre;&quot;&gt;&#x9;&lt;/span&gt;&lt;font face=&quot;Lucida Console&quot;&gt;&quot;access_type&quot;: &quot;RO&quot;&lt;/font&gt;&lt;br&gt;&lt;/p&gt;&lt;p style=&quot;margin:0px;margin-left:8px;&quot;&gt;&lt;span style=&quot;font-family: UuIYtcbSitA8eK5MFjsH; white-space: pre;&quot;&gt;&#x9;&lt;/span&gt;&lt;span style=&quot;font-family: UuIYtcbSitA8eK5MFjsH; white-space: pre;&quot;&gt;&#x9;&lt;/span&gt;&lt;font face=&quot;Lucida Console&quot;&gt;}&lt;/font&gt;&lt;/p&gt;&lt;p style=&quot;margin:0px;margin-left:8px;&quot;&gt;&lt;span style=&quot;font-family: UuIYtcbSitA8eK5MFjsH; white-space: pre;&quot;&gt;&#x9;&lt;/span&gt;&lt;font face=&quot;Lucida Console&quot;&gt;}&lt;/font&gt;&lt;/p&gt;&lt;p style=&quot;margin:0px;margin-left:8px;&quot;&gt;&lt;font face=&quot;Lucida Console&quot;&gt;}&lt;/font&gt;&lt;/p&gt;" style="verticalAlign=top;align=left;overflow=fill;fontSize=12;fontFamily=Helvetica;html=1;whiteSpace=wrap;" parent="WIyWlLk6GJQsqaUBKTNV-1" vertex="1">
          <mxGeometry x="1002" y="930" width="395" height="500" as="geometry" />
        </mxCell>
        <mxCell id="pHV8ULAKs_P2QOliN_mK-43" value="Use" style="endArrow=open;endSize=12;dashed=1;html=1;rounded=0;entryX=1;entryY=0.75;entryDx=0;entryDy=0;exitX=0;exitY=0.5;exitDx=0;exitDy=0;" parent="WIyWlLk6GJQsqaUBKTNV-1" source="pHV8ULAKs_P2QOliN_mK-15" target="pHV8ULAKs_P2QOliN_mK-42" edge="1">
          <mxGeometry x="-0.1608" width="160" relative="1" as="geometry">
            <mxPoint x="1505" y="1305" as="sourcePoint" />
            <mxPoint x="1370" y="1425" as="targetPoint" />
            <Array as="points">
              <mxPoint x="1420" y="1305" />
            </Array>
            <mxPoint y="1" as="offset" />
          </mxGeometry>
        </mxCell>
        <mxCell id="pHV8ULAKs_P2QOliN_mK-46" value="Use" style="endArrow=open;endSize=12;dashed=1;html=1;rounded=0;exitX=0;exitY=0.5;exitDx=0;exitDy=0;entryX=0.75;entryY=1;entryDx=0;entryDy=0;" parent="WIyWlLk6GJQsqaUBKTNV-1" source="R0Rte5mgnnEbFd30__bY-68" target="pHV8ULAKs_P2QOliN_mK-42" edge="1">
          <mxGeometry x="-0.4167" y="-1" width="160" relative="1" as="geometry">
            <mxPoint x="1375" y="1675" as="sourcePoint" />
            <mxPoint x="1315" y="1425" as="targetPoint" />
            <Array as="points">
              <mxPoint x="1298" y="1615" />
            </Array>
            <mxPoint as="offset" />
          </mxGeometry>
        </mxCell>
        <mxCell id="pHV8ULAKs_P2QOliN_mK-47" value="MainWindow" style="swimlane;fontStyle=1;align=center;verticalAlign=top;childLayout=stackLayout;horizontal=1;startSize=26;horizontalStack=0;resizeParent=1;resizeParentMax=0;resizeLast=0;collapsible=1;marginBottom=0;whiteSpace=wrap;html=1;" parent="WIyWlLk6GJQsqaUBKTNV-1" vertex="1">
          <mxGeometry x="2470" y="995" width="320" height="138" as="geometry" />
        </mxCell>
        <mxCell id="pHV8ULAKs_P2QOliN_mK-48" value="+ field: type" style="text;strokeColor=none;fillColor=none;align=left;verticalAlign=top;spacingLeft=4;spacingRight=4;overflow=hidden;rotatable=0;points=[[0,0.5],[1,0.5]];portConstraint=eastwest;whiteSpace=wrap;html=1;" parent="pHV8ULAKs_P2QOliN_mK-47" vertex="1">
          <mxGeometry y="26" width="320" height="26" as="geometry" />
        </mxCell>
        <mxCell id="pHV8ULAKs_P2QOliN_mK-49" value="" style="line;strokeWidth=1;fillColor=none;align=left;verticalAlign=middle;spacingTop=-1;spacingLeft=3;spacingRight=3;rotatable=0;labelPosition=right;points=[];portConstraint=eastwest;strokeColor=inherit;" parent="pHV8ULAKs_P2QOliN_mK-47" vertex="1">
          <mxGeometry y="52" width="320" height="8" as="geometry" />
        </mxCell>
        <mxCell id="pHV8ULAKs_P2QOliN_mK-50" value="+ show_add_device_dialog(device): void" style="text;strokeColor=none;fillColor=none;align=left;verticalAlign=top;spacingLeft=4;spacingRight=4;overflow=hidden;rotatable=0;points=[[0,0.5],[1,0.5]];portConstraint=eastwest;whiteSpace=wrap;html=1;" parent="pHV8ULAKs_P2QOliN_mK-47" vertex="1">
          <mxGeometry y="60" width="320" height="26" as="geometry" />
        </mxCell>
        <mxCell id="NA0rE5WpsOrF8ZW44wvQ-16" value="+ get_user_input(device): dict" style="text;strokeColor=none;fillColor=none;align=left;verticalAlign=top;spacingLeft=4;spacingRight=4;overflow=hidden;rotatable=0;points=[[0,0.5],[1,0.5]];portConstraint=eastwest;whiteSpace=wrap;html=1;" parent="pHV8ULAKs_P2QOliN_mK-47" vertex="1">
          <mxGeometry y="86" width="320" height="26" as="geometry" />
        </mxCell>
        <mxCell id="NA0rE5WpsOrF8ZW44wvQ-26" value="+ display_table_view(device): void" style="text;strokeColor=none;fillColor=none;align=left;verticalAlign=top;spacingLeft=4;spacingRight=4;overflow=hidden;rotatable=0;points=[[0,0.5],[1,0.5]];portConstraint=eastwest;whiteSpace=wrap;html=1;" parent="pHV8ULAKs_P2QOliN_mK-47" vertex="1">
          <mxGeometry y="112" width="320" height="26" as="geometry" />
        </mxCell>
        <mxCell id="hIqTlXoAwV2D1cVi5-Ym-0" value="Use" style="endArrow=open;endSize=12;dashed=1;html=1;rounded=0;entryX=0.5;entryY=0;entryDx=0;entryDy=0;exitX=1;exitY=0.5;exitDx=0;exitDy=0;" parent="WIyWlLk6GJQsqaUBKTNV-1" source="pHV8ULAKs_P2QOliN_mK-16" target="R0Rte5mgnnEbFd30__bY-67" edge="1">
          <mxGeometry x="0.1466" width="160" relative="1" as="geometry">
            <mxPoint x="1405" y="1400" as="sourcePoint" />
            <mxPoint x="1670" y="1470" as="targetPoint" />
            <Array as="points">
              <mxPoint x="1915" y="1408" />
              <mxPoint x="1915" y="1520" />
              <mxPoint x="1660" y="1520" />
            </Array>
            <mxPoint as="offset" />
          </mxGeometry>
        </mxCell>
        <mxCell id="hIqTlXoAwV2D1cVi5-Ym-5" value="Use" style="endArrow=open;endSize=12;dashed=1;html=1;rounded=0;exitX=1;exitY=0.5;exitDx=0;exitDy=0;entryX=0;entryY=0.5;entryDx=0;entryDy=0;" parent="WIyWlLk6GJQsqaUBKTNV-1" source="pHV8ULAKs_P2QOliN_mK-48" edge="1">
          <mxGeometry width="160" relative="1" as="geometry">
            <mxPoint x="2795" y="1037.58" as="sourcePoint" />
            <mxPoint x="2980" y="1033.9999999999998" as="targetPoint" />
          </mxGeometry>
        </mxCell>
        <mxCell id="NA0rE5WpsOrF8ZW44wvQ-0" value="SerialPorts" style="swimlane;fontStyle=1;align=center;verticalAlign=top;childLayout=stackLayout;horizontal=1;startSize=26;horizontalStack=0;resizeParent=1;resizeParentMax=0;resizeLast=0;collapsible=1;marginBottom=0;whiteSpace=wrap;html=1;" parent="WIyWlLk6GJQsqaUBKTNV-1" vertex="1">
          <mxGeometry x="2980" y="995" width="220" height="60" as="geometry" />
        </mxCell>
        <mxCell id="NA0rE5WpsOrF8ZW44wvQ-2" value="" style="line;strokeWidth=1;fillColor=none;align=left;verticalAlign=middle;spacingTop=-1;spacingLeft=3;spacingRight=3;rotatable=0;labelPosition=right;points=[];portConstraint=eastwest;strokeColor=inherit;" parent="NA0rE5WpsOrF8ZW44wvQ-0" vertex="1">
          <mxGeometry y="26" width="220" height="8" as="geometry" />
        </mxCell>
        <mxCell id="NA0rE5WpsOrF8ZW44wvQ-3" value="+ get_serial_ports(): list" style="text;strokeColor=none;fillColor=none;align=left;verticalAlign=top;spacingLeft=4;spacingRight=4;overflow=hidden;rotatable=0;points=[[0,0.5],[1,0.5]];portConstraint=eastwest;whiteSpace=wrap;html=1;" parent="NA0rE5WpsOrF8ZW44wvQ-0" vertex="1">
          <mxGeometry y="34" width="220" height="26" as="geometry" />
        </mxCell>
        <mxCell id="NA0rE5WpsOrF8ZW44wvQ-5" value="Use" style="endArrow=open;endSize=12;dashed=1;html=1;rounded=0;entryX=0.25;entryY=0;entryDx=0;entryDy=0;exitX=0.25;exitY=0;exitDx=0;exitDy=0;" parent="WIyWlLk6GJQsqaUBKTNV-1" source="pHV8ULAKs_P2QOliN_mK-47" target="pHV8ULAKs_P2QOliN_mK-11" edge="1">
          <mxGeometry width="160" relative="1" as="geometry">
            <mxPoint x="2560" y="920" as="sourcePoint" />
            <mxPoint x="1575" y="965" as="targetPoint" />
            <Array as="points">
              <mxPoint x="2550" y="920" />
              <mxPoint x="1610" y="920" />
            </Array>
          </mxGeometry>
        </mxCell>
        <mxCell id="NA0rE5WpsOrF8ZW44wvQ-13" value="&lt;font color=&quot;#cccccc&quot;&gt;&lt;u&gt;&lt;i&gt;show_add_device_dialog()&lt;/i&gt;&lt;/u&gt;&lt;br&gt;&lt;/font&gt;&lt;pre&gt;&lt;font color=&quot;#cccccc&quot; face=&quot;Tahoma&quot;&gt;&lt;i&gt;Gives the user to select between&lt;br&gt;RTU and TCP device using a&lt;br&gt;radio button.&lt;/i&gt;&lt;/font&gt;&lt;/pre&gt;&lt;pre&gt;&lt;font color=&quot;#cccccc&quot; face=&quot;Tahoma&quot;&gt;&lt;i&gt;Has a provision to add registers&lt;/i&gt;&lt;/font&gt;&lt;/pre&gt;" style="text;html=1;align=center;verticalAlign=middle;resizable=0;points=[];autosize=1;strokeColor=none;fillColor=none;" parent="WIyWlLk6GJQsqaUBKTNV-1" vertex="1">
          <mxGeometry x="2595" y="1149" width="195" height="130" as="geometry" />
        </mxCell>
        <mxCell id="NA0rE5WpsOrF8ZW44wvQ-14" value="&lt;i&gt;&lt;font color=&quot;#cccccc&quot;&gt;If both connection protocols are registered&lt;br&gt;use TCP by default and provide the user&lt;br&gt;with an option to change to RTU using a radio button&lt;/font&gt;&lt;/i&gt;" style="text;html=1;align=center;verticalAlign=middle;resizable=0;points=[];autosize=1;strokeColor=none;fillColor=none;" parent="WIyWlLk6GJQsqaUBKTNV-1" vertex="1">
          <mxGeometry x="2121" y="1670" width="300" height="60" as="geometry" />
        </mxCell>
        <mxCell id="NA0rE5WpsOrF8ZW44wvQ-19" value="Use" style="endArrow=open;endSize=12;dashed=1;html=1;rounded=0;entryX=1;entryY=0.5;entryDx=0;entryDy=0;exitX=1;exitY=0.75;exitDx=0;exitDy=0;" parent="WIyWlLk6GJQsqaUBKTNV-1" source="pHV8ULAKs_P2QOliN_mK-47" target="R0Rte5mgnnEbFd30__bY-76" edge="1">
          <mxGeometry x="0.9184" width="160" relative="1" as="geometry">
            <mxPoint x="2840" y="1105" as="sourcePoint" />
            <mxPoint x="1900" y="1780" as="targetPoint" />
            <Array as="points">
              <mxPoint x="2880" y="1099" />
              <mxPoint x="2880" y="1400" />
              <mxPoint x="2880" y="1980" />
              <mxPoint x="2320" y="1980" />
              <mxPoint x="2000" y="1980" />
              <mxPoint x="2000" y="1805" />
            </Array>
            <mxPoint as="offset" />
          </mxGeometry>
        </mxCell>
        <mxCell id="NA0rE5WpsOrF8ZW44wvQ-23" value="" style="endArrow=none;html=1;edgeStyle=orthogonalEdgeStyle;rounded=0;entryX=0.75;entryY=0;entryDx=0;entryDy=0;exitX=-0.006;exitY=0.52;exitDx=0;exitDy=0;exitPerimeter=0;" parent="WIyWlLk6GJQsqaUBKTNV-1" source="pHV8ULAKs_P2QOliN_mK-48" target="R0Rte5mgnnEbFd30__bY-61" edge="1">
          <mxGeometry relative="1" as="geometry">
            <mxPoint x="2450" y="1090" as="sourcePoint" />
            <mxPoint x="2340" y="1290" as="targetPoint" />
            <Array as="points">
              <mxPoint x="2360" y="1035" />
            </Array>
          </mxGeometry>
        </mxCell>
        <mxCell id="NA0rE5WpsOrF8ZW44wvQ-24" value="parent" style="edgeLabel;resizable=0;html=1;align=left;verticalAlign=bottom;" parent="NA0rE5WpsOrF8ZW44wvQ-23" connectable="0" vertex="1">
          <mxGeometry x="-1" relative="1" as="geometry">
            <mxPoint x="-68" as="offset" />
          </mxGeometry>
        </mxCell>
        <mxCell id="NA0rE5WpsOrF8ZW44wvQ-25" value="child" style="edgeLabel;resizable=0;html=1;align=right;verticalAlign=bottom;" parent="NA0rE5WpsOrF8ZW44wvQ-23" connectable="0" vertex="1">
          <mxGeometry x="1" relative="1" as="geometry">
            <mxPoint x="30" y="-22" as="offset" />
          </mxGeometry>
        </mxCell>
        <mxCell id="NA0rE5WpsOrF8ZW44wvQ-27" value="ModbusProtocols" style="swimlane;fontStyle=1;align=center;verticalAlign=top;childLayout=stackLayout;horizontal=1;startSize=26;horizontalStack=0;resizeParent=1;resizeParentMax=0;resizeLast=0;collapsible=1;marginBottom=0;whiteSpace=wrap;html=1;" parent="WIyWlLk6GJQsqaUBKTNV-1" vertex="1">
          <mxGeometry x="2560" y="1700" width="280" height="138" as="geometry" />
        </mxCell>
        <mxCell id="NA0rE5WpsOrF8ZW44wvQ-28" value="+ field: type" style="text;strokeColor=none;fillColor=none;align=left;verticalAlign=top;spacingLeft=4;spacingRight=4;overflow=hidden;rotatable=0;points=[[0,0.5],[1,0.5]];portConstraint=eastwest;whiteSpace=wrap;html=1;" parent="NA0rE5WpsOrF8ZW44wvQ-27" vertex="1">
          <mxGeometry y="26" width="280" height="26" as="geometry" />
        </mxCell>
        <mxCell id="NA0rE5WpsOrF8ZW44wvQ-29" value="" style="line;strokeWidth=1;fillColor=none;align=left;verticalAlign=middle;spacingTop=-1;spacingLeft=3;spacingRight=3;rotatable=0;labelPosition=right;points=[];portConstraint=eastwest;strokeColor=inherit;" parent="NA0rE5WpsOrF8ZW44wvQ-27" vertex="1">
          <mxGeometry y="52" width="280" height="8" as="geometry" />
        </mxCell>
        <mxCell id="NA0rE5WpsOrF8ZW44wvQ-30" value="+ connect(device_connection_params): bool" style="text;strokeColor=none;fillColor=none;align=left;verticalAlign=top;spacingLeft=4;spacingRight=4;overflow=hidden;rotatable=0;points=[[0,0.5],[1,0.5]];portConstraint=eastwest;whiteSpace=wrap;html=1;" parent="NA0rE5WpsOrF8ZW44wvQ-27" vertex="1">
          <mxGeometry y="60" width="280" height="26" as="geometry" />
        </mxCell>
        <mxCell id="NA0rE5WpsOrF8ZW44wvQ-31" value="+ disconnect(device): bool" style="text;strokeColor=none;fillColor=none;align=left;verticalAlign=top;spacingLeft=4;spacingRight=4;overflow=hidden;rotatable=0;points=[[0,0.5],[1,0.5]];portConstraint=eastwest;whiteSpace=wrap;html=1;" parent="NA0rE5WpsOrF8ZW44wvQ-27" vertex="1">
          <mxGeometry y="86" width="280" height="26" as="geometry" />
        </mxCell>
        <mxCell id="NA0rE5WpsOrF8ZW44wvQ-32" value="+ is_connected(device): bool" style="text;strokeColor=none;fillColor=none;align=left;verticalAlign=top;spacingLeft=4;spacingRight=4;overflow=hidden;rotatable=0;points=[[0,0.5],[1,0.5]];portConstraint=eastwest;whiteSpace=wrap;html=1;" parent="NA0rE5WpsOrF8ZW44wvQ-27" vertex="1">
          <mxGeometry y="112" width="280" height="26" as="geometry" />
        </mxCell>
        <mxCell id="NA0rE5WpsOrF8ZW44wvQ-49" value="&lt;i&gt;&lt;font color=&quot;#cccccc&quot;&gt;Create RTU and TCP classes that inherit from&lt;br&gt;ModbusProtocols that will be used to implement the&lt;br&gt;respective methods&lt;br&gt;&lt;/font&gt;&lt;/i&gt;" style="text;html=1;align=center;verticalAlign=middle;resizable=0;points=[];autosize=1;strokeColor=none;fillColor=none;" parent="WIyWlLk6GJQsqaUBKTNV-1" vertex="1">
          <mxGeometry x="2563" y="1855" width="295" height="60" as="geometry" />
        </mxCell>
        <mxCell id="NA0rE5WpsOrF8ZW44wvQ-51" value="&lt;b&gt;Notifications&lt;/b&gt;" style="swimlane;fontStyle=0;childLayout=stackLayout;horizontal=1;startSize=26;fillColor=none;horizontalStack=0;resizeParent=1;resizeParentMax=0;resizeLast=0;collapsible=1;marginBottom=0;whiteSpace=wrap;html=1;" parent="WIyWlLk6GJQsqaUBKTNV-1" vertex="1">
          <mxGeometry x="2587.5" y="1360" width="200" height="52" as="geometry" />
        </mxCell>
        <mxCell id="NA0rE5WpsOrF8ZW44wvQ-52" value="+ display_info(type, message): void" style="text;strokeColor=none;fillColor=none;align=left;verticalAlign=top;spacingLeft=4;spacingRight=4;overflow=hidden;rotatable=0;points=[[0,0.5],[1,0.5]];portConstraint=eastwest;whiteSpace=wrap;html=1;" parent="NA0rE5WpsOrF8ZW44wvQ-51" vertex="1">
          <mxGeometry y="26" width="200" height="26" as="geometry" />
        </mxCell>
        <mxCell id="NA0rE5WpsOrF8ZW44wvQ-55" value="&lt;i&gt;&lt;font color=&quot;#cccccc&quot;&gt;To be used by all classes to display warnings and&lt;br&gt;basic notifications&lt;br&gt;&lt;/font&gt;&lt;/i&gt;" style="text;html=1;align=center;verticalAlign=middle;resizable=0;points=[];autosize=1;strokeColor=none;fillColor=none;" parent="WIyWlLk6GJQsqaUBKTNV-1" vertex="1">
          <mxGeometry x="2545" y="1428" width="285" height="45" as="geometry" />
        </mxCell>
      </root>
    </mxGraphModel>
  </diagram>
</mxfile>
